<svg width="32" height="29" viewBox="0 0 32 29" fill="none" xmlns="http://www.w3.org/2000/svg">
<path d="M31.9604 13.8396C32.0137 14.0239 32.0137 14.2195 31.9604 14.4038C31.6524 15.2062 31.1031 15.7961 30.3522 16.1898C29.984 16.3827 29.6141 16.3771 29.2938 16.0483C29.1534 15.904 28.9886 15.7844 28.7813 15.6077V16.0472C28.7813 20.4847 28.7813 22.8539 28.7813 27.2914C28.7813 28.3035 28.1596 28.9818 27.182 28.9896C25.2368 29.0058 23.2915 29.0014 21.3463 28.9896C20.6589 28.9857 20.1264 28.6077 19.942 27.9988C19.8744 27.7475 19.8435 27.4878 19.8501 27.2277C19.8445 24.1372 19.8467 23.1156 19.8467 20.0245V19.6571H12.7214V24.2222C12.7214 25.9243 12.7248 25.5575 12.7214 27.2596C12.7214 28.3114 12.0897 28.9846 11.0831 28.993C9.27327 29.0036 7.46229 28.9997 5.65297 28.993C4.96947 28.993 4.43469 28.6972 4.16118 28.0569C4.04698 27.7897 4.01412 27.4692 4.01301 27.1723C4.00465 22.7035 4.00688 20.3035 4.00688 15.8341V15.4075C3.63978 15.7363 3.35067 16.0198 3.0337 16.2692C2.83372 16.4263 2.60756 16.5834 2.36524 16.6511C1.6355 16.8568 1.08401 16.5213 0.59882 16.0024C-0.228406 15.1201 -0.201668 14.2785 0.68962 13.4588C5.32914 9.19125 9.96792 4.92295 14.606 0.65391C15.5362 -0.202173 16.4242 -0.216712 17.3712 0.614767C21.942 4.63107 26.5141 8.6455 31.0875 12.6581C31.4697 12.9913 31.8162 13.3363 31.9604 13.8396Z" fill="#0ea5e9"/>
</svg>
